<?xml version="1.0" encoding="utf-8"?>
<!-- Generator: Adobe Illustrator 27.0.1, SVG Export Plug-In . SVG Version: 6.00 Build 0)  -->
<svg version="1.1" id="Camada_1" xmlns="http://www.w3.org/2000/svg" xmlns:xlink="http://www.w3.org/1999/xlink" x="0px" y="0px"
	 viewBox="0 0 89.26 70" style="enable-background:new 0 0 89.26 70;" xml:space="preserve">
<style type="text/css">
	.st0{fill:#1D1D1B;}
	.st1{fill:#EE7A36;}
</style>
<g>
	<g>
		<path class="st0" d="M88.95,69.99H0L44.48-0.2L88.95,69.99z M2.96,68.36h83.04L44.48,2.84L2.96,68.36z"/>
	</g>
	<g>
		<path class="st0" d="M47.04,22.83c-0.77,0.43-1.62,0.65-2.56,0.65c-1.09,0-1.97-0.35-2.64-1.05c-0.67-0.7-1.01-1.63-1.01-2.79
			c0-1.18,0.37-2.15,1.12-2.91c0.75-0.76,1.69-1.14,2.84-1.14c0.83,0,1.53,0.14,2.09,0.4v0.99c-0.62-0.39-1.35-0.59-2.19-0.59
			c-0.86,0-1.56,0.29-2.1,0.88c-0.55,0.59-0.82,1.35-0.82,2.29c0,0.97,0.25,1.72,0.76,2.28c0.51,0.55,1.2,0.83,2.07,0.83
			c0.6,0,1.11-0.12,1.55-0.36v-2.14h-1.67v-0.81h2.57V22.83z"/>
	</g>
	<g>
		<path class="st1" d="M49.38,48.48c-0.3,0-0.56-0.04-0.78-0.12c-0.23-0.08-0.44-0.19-0.63-0.34c-0.19-0.15-0.38-0.33-0.56-0.54
			c-0.18-0.21-0.37-0.45-0.56-0.72c-0.21,0.22-0.45,0.44-0.72,0.65c-0.27,0.21-0.58,0.39-0.91,0.55c-0.33,0.16-0.7,0.29-1.09,0.39
			c-0.39,0.1-0.82,0.14-1.29,0.14c-0.56,0-1.08-0.07-1.54-0.21c-0.47-0.14-0.87-0.35-1.2-0.62s-0.59-0.61-0.78-1.01
			c-0.18-0.4-0.28-0.86-0.28-1.38c0-0.79,0.23-1.47,0.68-2.04c0.45-0.56,1.09-1.02,1.92-1.38c-0.16-0.11-0.31-0.25-0.47-0.4
			c-0.16-0.15-0.29-0.33-0.42-0.52c-0.12-0.19-0.22-0.41-0.3-0.65s-0.11-0.49-0.11-0.78c0-0.41,0.07-0.77,0.22-1.09
			c0.15-0.32,0.35-0.58,0.61-0.8c0.26-0.22,0.57-0.38,0.92-0.49c0.35-0.11,0.74-0.17,1.15-0.17c0.41,0,0.78,0.06,1.11,0.17
			c0.33,0.11,0.62,0.27,0.86,0.48s0.43,0.46,0.56,0.75c0.14,0.29,0.2,0.62,0.2,0.97c0,0.62-0.18,1.14-0.53,1.55
			c-0.36,0.41-0.89,0.76-1.6,1.06c0.36,0.14,0.68,0.31,0.97,0.51c0.29,0.2,0.56,0.43,0.81,0.68c0.25,0.25,0.48,0.52,0.69,0.8
			s0.42,0.58,0.63,0.89c0.42-0.59,0.74-1.23,0.95-1.94c0.21-0.71,0.32-1.45,0.32-2.22c0-0.2-0.01-0.38-0.03-0.56
			c-0.02-0.17-0.06-0.35-0.1-0.52h1.24c0.04,0.17,0.07,0.33,0.07,0.49c0.01,0.15,0.02,0.34,0.03,0.55c0,0.47-0.05,0.95-0.15,1.43
			c-0.1,0.48-0.23,0.94-0.4,1.39c-0.17,0.45-0.36,0.88-0.58,1.28c-0.22,0.41-0.45,0.78-0.7,1.11c0.18,0.25,0.35,0.47,0.5,0.65
			c0.15,0.18,0.3,0.34,0.46,0.46c0.15,0.12,0.31,0.22,0.48,0.28c0.16,0.06,0.35,0.09,0.56,0.09c0.16,0,0.31-0.02,0.48-0.06
			c0.16-0.04,0.33-0.09,0.5-0.16v1.18c-0.19,0.07-0.38,0.13-0.59,0.16C49.78,48.46,49.58,48.48,49.38,48.48z M42.85,47.37
			c0.39,0,0.76-0.04,1.09-0.13c0.33-0.09,0.64-0.2,0.92-0.34c0.28-0.14,0.54-0.31,0.76-0.5c0.23-0.19,0.44-0.39,0.62-0.6
			c-0.32-0.49-0.61-0.92-0.88-1.27c-0.27-0.35-0.54-0.65-0.81-0.91c-0.27-0.25-0.56-0.47-0.87-0.65c-0.31-0.18-0.67-0.35-1.07-0.51
			c-0.33,0.13-0.63,0.27-0.9,0.43c-0.28,0.16-0.51,0.35-0.71,0.56c-0.2,0.22-0.36,0.47-0.47,0.75c-0.11,0.29-0.17,0.62-0.17,1.01
			c0,0.35,0.06,0.66,0.19,0.94c0.13,0.27,0.31,0.49,0.53,0.67s0.49,0.31,0.79,0.4C42.17,47.33,42.5,47.37,42.85,47.37z M44.79,39.42
			c0-0.26-0.05-0.48-0.14-0.66c-0.1-0.18-0.22-0.33-0.37-0.45c-0.15-0.12-0.31-0.21-0.49-0.26c-0.18-0.05-0.36-0.08-0.54-0.08
			c-0.51,0-0.92,0.14-1.22,0.41c-0.3,0.28-0.46,0.65-0.46,1.12c0,0.21,0.03,0.41,0.1,0.6c0.06,0.19,0.16,0.36,0.27,0.52
			c0.12,0.16,0.25,0.3,0.41,0.43s0.32,0.23,0.5,0.32c0.65-0.23,1.14-0.49,1.46-0.8C44.63,40.26,44.79,39.88,44.79,39.42z"/>
	</g>
	<g>
		<path class="st0" d="M26.01,55.53h-2.55v7.63h-1.03v-7.63h-2.54v-0.91h6.12V55.53z"/>
	</g>
	<g>
		<path class="st0" d="M65.31,63.01c-1.13,0-2.04-0.39-2.72-1.17c-0.68-0.78-1.02-1.8-1.02-3.05c0-1.35,0.35-2.42,1.04-3.22
			c0.69-0.8,1.64-1.2,2.83-1.2c1.1,0,1.99,0.39,2.66,1.17c0.67,0.78,1.01,1.8,1.01,3.05c0,1.37-0.35,2.45-1.04,3.24
			C67.39,62.61,66.46,63.01,65.31,63.01z M65.37,55.25c-0.84,0-1.52,0.32-2.04,0.95c-0.52,0.63-0.78,1.47-0.78,2.5
			s0.25,1.86,0.77,2.49c0.51,0.63,1.18,0.94,2,0.94c0.88,0,1.57-0.3,2.07-0.9c0.5-0.6,0.76-1.44,0.76-2.52
			c0-1.11-0.24-1.96-0.73-2.56C66.91,55.55,66.23,55.25,65.37,55.25z"/>
	</g>
	<g>
		<path class="st0" d="M64.31,31.01H24.64L44.48-0.3L64.31,31.01z M27.59,29.38h33.76L44.48,2.74L27.59,29.38z"/>
	</g>
	<g>
		<path class="st0" d="M46.14,69.99H0.38L26.6,28.61L46.14,69.99z M3.34,68.36h40.23L26.39,31.98L3.34,68.36z"/>
	</g>
	<g>
		<path class="st0" d="M89.26,70H44.73L63,29.35L89.26,70z M47.25,68.37h39.02L63.26,32.74L47.25,68.37z"/>
	</g>
</g>
</svg>
